<?xml version="1.0" standalone="no"?>
<!DOCTYPE svg PUBLIC "-//W3C//DTD SVG 20010904//EN"
 "http://www.w3.org/TR/2001/REC-SVG-20010904/DTD/svg10.dtd">
<svg version="1.0" xmlns="http://www.w3.org/2000/svg"
 width="1599.000000pt" height="460.000000pt" viewBox="0 0 1599.000000 460.000000"
 preserveAspectRatio="xMidYMid meet">
<metadata>
Created by potrace 1.16, written by Peter Selinger 2001-2019
</metadata>
<g transform="translate(0.000000,460.000000) scale(0.100000,-0.100000)"
fill="#000000" stroke="none">
<path d="M0 2300 l0 -2300 7995 0 7995 0 0 2300 0 2300 -7995 0 -7995 0 0
-2300z m13735 1611 c-6 -5 -79 -68 -164 -140 l-153 -131 -104 0 c-57 0 -104 2
-104 5 0 3 52 66 116 140 l116 135 151 0 c87 0 147 -4 142 -9z m-11962 -410
c174 -46 292 -131 351 -254 19 -40 38 -91 41 -114 l7 -43 -116 0 -117 0 -18
43 c-35 79 -122 146 -228 174 -83 22 -271 22 -348 -1 -219 -65 -324 -218 -294
-431 17 -125 83 -213 202 -270 88 -43 183 -59 316 -53 169 8 281 65 343 174
l30 54 114 0 c130 0 124 5 95 -91 -73 -233 -311 -351 -680 -336 -235 9 -391
66 -512 187 -110 110 -152 218 -152 395 0 115 19 200 63 284 82 153 254 261
472 297 116 19 329 11 431 -15z m4011 4 c178 -47 280 -155 302 -317 l7 -48
-115 0 -115 0 -13 45 c-15 53 -68 106 -126 126 -25 9 -83 14 -159 14 -102 0
-127 -3 -167 -22 -57 -26 -81 -60 -81 -115 0 -80 76 -117 328 -158 241 -39
342 -77 411 -152 52 -57 69 -104 69 -198 -1 -215 -170 -330 -486 -330 -232 0
-384 53 -497 174 -60 65 -102 147 -102 201 l0 25 118 0 117 0 18 -45 c39 -95
174 -157 342 -159 162 -1 244 41 260 134 15 88 -41 119 -284 161 -270 46 -385
91 -465 180 -47 53 -66 102 -66 176 0 162 120 277 335 319 87 17 286 11 369
-11z m-2441 -18 c167 -49 245 -139 255 -294 10 -160 -56 -258 -208 -308 l-55
-18 64 -13 c35 -7 82 -25 103 -39 62 -41 71 -74 76 -272 l4 -173 -121 0 -121
0 0 158 c0 140 -2 161 -20 190 -38 62 -61 66 -392 70 l-298 4 0 -211 0 -211
-115 0 -115 0 0 571 0 570 443 -3 c376 -4 451 -7 500 -21z m812 -239 c88 -144
167 -271 176 -281 15 -19 24 -6 185 259 l169 279 134 3 c108 2 132 0 128 -11
-3 -7 -113 -182 -246 -389 l-241 -377 0 -180 0 -181 -120 0 -120 0 0 180 0
181 -58 92 c-33 51 -141 220 -242 377 -100 157 -185 291 -187 298 -4 9 25 12
128 12 l134 -1 160 -261z m3275 162 l0 -100 -240 0 -240 0 0 -470 0 -470 -115
0 -115 0 0 470 0 470 -239 0 -240 0 -3 90 c-2 50 -1 95 0 100 2 6 220 10 598
10 l594 0 0 -100z m828 13 c22 -49 88 -189 147 -313 271 -571 345 -727 345
-734 0 -4 -56 -5 -125 -4 l-126 3 -56 123 -56 122 -293 0 c-223 0 -295 -3
-301 -12 -4 -7 -31 -62 -58 -123 l-51 -110 -127 -3 -127 -3 34 73 c30 65 226
483 419 893 38 83 75 156 80 163 7 8 46 12 132 12 l122 0 41 -87z m892 -383
c0 -441 1 -470 18 -470 9 0 178 0 375 0 l357 0 0 -100 0 -100 -490 0 -490 0 0
570 0 570 115 0 115 0 0 -470z m1240 45 c97 -231 185 -439 196 -463 l19 -43
59 143 c32 79 85 204 116 278 32 74 92 219 135 323 l78 187 123 0 c68 0 124
-4 124 -9 0 -9 -128 -305 -436 -1006 l-53 -120 -148 0 -148 0 -241 547 c-133
301 -245 556 -249 568 -6 20 -4 21 121 18 l128 -3 176 -420z m2130 325 l0
-100 -435 0 -435 0 0 -140 0 -140 360 0 361 0 -3 -92 -3 -93 -357 -3 -358 -2
0 -138 0 -137 438 0 437 0 3 -97 3 -98 -556 0 -555 0 0 570 0 570 550 0 550 0
0 -100z m1350 0 l0 -100 -435 0 -435 0 0 -140 0 -140 358 -2 357 -3 0 -90 0
-90 -357 -3 -358 -2 0 -135 c0 -101 3 -135 13 -135 6 0 203 -2 437 -3 l425 -2
3 -97 3 -98 -556 0 -555 0 0 570 0 570 550 0 550 0 0 -100z m542 -110 c70
-113 147 -238 170 -277 24 -40 47 -72 51 -70 5 1 70 104 145 228 76 123 152
248 169 277 l33 52 131 0 c107 0 130 -3 126 -14 -3 -7 -102 -164 -220 -347
-117 -184 -226 -353 -240 -376 -27 -42 -27 -45 -27 -223 l0 -180 -120 0 -120
0 0 180 0 181 -62 97 c-34 53 -142 222 -240 375 -98 152 -181 284 -185 292 -5
14 12 15 128 13 l134 -3 127 -205z"/>
<path d="M2630 3141 l0 -171 288 0 c331 1 363 7 416 73 27 34 31 46 31 100 -1
74 -20 108 -79 140 -39 21 -54 22 -348 25 l-308 4 0 -171z"/>
<path d="M7990 3049 c-52 -116 -96 -217 -98 -225 -3 -12 28 -14 197 -14 150 0
201 3 201 12 0 16 -192 438 -199 438 -3 0 -49 -95 -101 -211z"/>
</g>
</svg>
